<svg width="19" height="19" viewBox="0 0 19 19" fill="none" xmlns="http://www.w3.org/2000/svg">
<path d="M6.29691 15.1924C5.30737 15.1924 4.50674 16.002 4.50674 16.9916C4.50674 17.9811 5.30737 18.7907 6.29691 18.7907C7.28646 18.7907 8.09608 17.9811 8.09608 16.9916C8.09608 16.002 7.28646 15.1924 6.29691 15.1924ZM0.899414 0.799072V2.59824H2.69858L5.93708 9.42608L4.72264 11.6301C4.57871 11.8819 4.49775 12.1788 4.49775 12.4937C4.49775 13.4832 5.30737 14.2928 6.29691 14.2928H17.0919V12.4937H6.67474C6.5488 12.4937 6.44984 12.3947 6.44984 12.2688L6.47683 12.1608L7.28646 10.6945H13.9884C14.663 10.6945 15.2568 10.3257 15.5626 9.76792L18.7831 3.92962C18.8551 3.80368 18.8911 3.65075 18.8911 3.49782C18.8911 3.00305 18.4863 2.59824 17.9915 2.59824H4.68666L3.84105 0.799072H0.899414ZM15.2927 15.1924C14.3032 15.1924 13.5026 16.002 13.5026 16.9916C13.5026 17.9811 14.3032 18.7907 15.2927 18.7907C16.2823 18.7907 17.0919 17.9811 17.0919 16.9916C17.0919 16.002 16.2823 15.1924 15.2927 15.1924Z" fill="#8F8F8F"/>
</svg>
