<svg width="226" height="132" viewBox="0 0 226 132" fill="none" xmlns="http://www.w3.org/2000/svg">
<path d="M113.038 3.32448H220.655C221.872 3.32448 222.858 4.31114 222.858 5.52824V31.5965V72.5546C186.841 90.7684 167.785 102.88 136.177 128.374H113.038H89.898C60.5297 102.459 41.2007 90.5608 3.21655 72.5546V31.5965V5.52824C3.21655 4.31114 4.20321 3.32448 5.42031 3.32448H113.038Z" fill="#90AFCC"/>
<path d="M222.858 72.5546V31.5965M222.858 72.5546C191.74 75.2446 171.759 80.0057 158.215 90.7858M222.858 72.5546C186.841 90.7684 167.785 102.88 136.177 128.374M136.177 128.374C141.127 111.037 147.75 99.1149 158.215 90.7858M136.177 128.374H113.038H89.898M222.858 31.5965V5.52824C222.858 4.31114 221.872 3.32448 220.655 3.32448H113.038H5.42031C4.20321 3.32448 3.21655 4.31114 3.21655 5.52824V31.5965M222.858 31.5965H141.686M141.686 31.5965H113.038H84.3886M141.686 31.5965C142.661 56.4001 145.202 69.6924 158.215 90.7858M3.21655 72.5546V31.5965M3.21655 72.5546C34.3348 75.2446 54.3156 80.0057 67.8603 90.7858M3.21655 72.5546C41.2007 90.5608 60.5297 102.459 89.898 128.374M89.898 128.374C84.9485 111.037 78.3254 99.1149 67.8603 90.7858M3.21655 31.5965H84.3886M84.3886 31.5965C83.4144 56.4001 80.8728 69.6924 67.8603 90.7858" stroke="black" stroke-width="5.87671"/>
</svg>
