<svg width="251" height="192" viewBox="0 0 251 192" fill="none" xmlns="http://www.w3.org/2000/svg">
<path d="M18.8911 3.48376H125.774H232.656V21.9693C242.913 84.0676 246.771 118.779 247.715 180.365C210.561 187.092 189.732 189.185 152.586 188.702C150.676 171.412 147.38 162.3 138.996 146.706C135.16 147.557 130.773 147.891 125.774 147.743C120.774 147.891 116.388 147.557 112.551 146.706C104.168 162.3 100.872 171.412 98.9612 188.702C61.8153 189.185 40.9863 187.092 3.83203 180.365C4.77646 118.779 8.63441 84.0676 18.8911 21.9693V3.48376Z" fill="#BDBDBD"/>
<path d="M18.8911 3.48376H125.774H232.656M18.8911 3.48376V21.9693M18.8911 3.48376C57.7526 13.5684 81.2859 16.2788 125.774 16.8948C170.262 16.2788 193.795 13.5684 232.656 3.48376M18.8911 21.9693C8.63441 84.0676 4.77646 118.779 3.83203 180.365C40.9863 187.092 61.8153 189.185 98.9612 188.702C100.872 171.412 104.168 162.3 112.551 146.706M18.8911 21.9693C47.8928 28.4508 68.0335 31.6714 91.6154 32.8104M91.6154 32.8104C101.987 33.3114 113.024 33.4096 125.774 33.2056C138.523 33.4096 149.56 33.3114 159.932 32.8104M91.6154 32.8104C85.8081 107.341 84.8387 140.552 112.551 146.706M112.551 146.706C116.388 147.557 120.774 147.891 125.774 147.743C130.773 147.891 135.16 147.557 138.996 146.706M232.656 3.48376V21.9693M232.656 21.9693C242.913 84.0676 246.771 118.779 247.715 180.365C210.561 187.092 189.732 189.185 152.586 188.702C150.676 171.412 147.38 162.3 138.996 146.706M232.656 21.9693C203.655 28.4508 183.514 31.6714 159.932 32.8104M159.932 32.8104C165.739 107.341 166.709 140.552 138.996 146.706" stroke="black" stroke-width="5.87671"/>
</svg>
