<svg width="51" height="43" viewBox="0 0 51 43" fill="none" xmlns="http://www.w3.org/2000/svg">
<path d="M23.8889 35.8333C23.8889 26.5883 31.3661 19.1111 40.6111 19.1111C43.1911 19.1111 45.6039 19.7083 47.7778 20.7356V4.77778C47.7778 2.15 45.6278 0 43 0H4.77778C2.15 0 0 2.15 0 4.77778V33.4444C0 36.0722 2.15 38.2222 4.77778 38.2222H24.08C23.9606 37.4339 23.8889 36.6456 23.8889 35.8333ZM4.77778 4.77778L23.8889 16.7222L43 4.77778V9.55556L23.8889 21.5L4.77778 9.55556V4.77778ZM36.6456 43L28.1889 34.5433L31.5572 31.175L36.6217 36.2394L46.7506 26.1106L50.1667 29.4789L36.6456 43Z" fill="white"/>
</svg>
