<svg width="57" height="43" viewBox="0 0 57 43" fill="none" xmlns="http://www.w3.org/2000/svg">
<path d="M51.3751 1.27083C48.5538 0.38125 45.453 0 42.4792 0C37.523 0 32.1855 1.01667 28.5001 3.8125C24.8147 1.01667 19.4772 0 14.5209 0C9.56466 0 4.22716 1.01667 0.541748 3.8125V41.0479C0.541748 41.6833 1.17716 42.3187 1.81258 42.3187C2.06675 42.3187 2.19383 42.1917 2.448 42.1917C5.87925 40.5396 10.8355 39.3958 14.5209 39.3958C19.4772 39.3958 24.8147 40.4125 28.5001 43.2083C31.9313 41.0479 38.1584 39.3958 42.4792 39.3958C46.673 39.3958 50.9938 40.1583 54.5522 42.0646C54.8063 42.1917 54.9334 42.1917 55.1876 42.1917C55.823 42.1917 56.4584 41.5562 56.4584 40.9208V3.8125C54.9334 2.66875 53.2813 1.90625 51.3751 1.27083ZM51.3751 35.5833C48.5793 34.6937 45.5293 34.3125 42.4792 34.3125C38.1584 34.3125 31.9313 35.9646 28.5001 38.125V8.89583C31.9313 6.73542 38.1584 5.08333 42.4792 5.08333C45.5293 5.08333 48.5793 5.46458 51.3751 6.35417V35.5833Z" fill="white"/>
</svg>
