<svg width="44" height="44" viewBox="0 0 44 44" fill="none" xmlns="http://www.w3.org/2000/svg">
<path d="M12.9137 34.7075C10.5462 34.7075 8.63065 36.6445 8.63065 39.012C8.63065 41.3795 10.5462 43.3166 12.9137 43.3166C15.2812 43.3166 17.2183 41.3795 17.2183 39.012C17.2183 36.6445 15.2812 34.7075 12.9137 34.7075ZM0 0.270935V4.5755H4.30457L12.0528 20.9113L9.1472 26.1844C8.80284 26.7871 8.60913 27.4973 8.60913 28.2506C8.60913 30.6181 10.5462 32.5552 12.9137 32.5552H38.7411V28.2506H13.8177C13.5163 28.2506 13.2796 28.0139 13.2796 27.7125L13.3442 27.4543L15.2812 23.946H31.3157C32.9299 23.946 34.3504 23.0636 35.0822 21.7292L42.7874 7.76088C42.9596 7.45956 43.0457 7.09367 43.0457 6.72778C43.0457 5.54403 42.0771 4.5755 40.8934 4.5755H9.06111L7.03796 0.270935H0ZM34.4365 34.7075C32.069 34.7075 30.1535 36.6445 30.1535 39.012C30.1535 41.3795 32.069 43.3166 34.4365 43.3166C36.804 43.3166 38.7411 41.3795 38.7411 39.012C38.7411 36.6445 36.804 34.7075 34.4365 34.7075Z" fill="white"/>
</svg>
