<svg width="205" height="133" viewBox="0 0 205 133" fill="none" xmlns="http://www.w3.org/2000/svg">
<path d="M3.07422 29.3399V3.94604C80.8644 27.0351 124.528 27.0771 202.501 3.94604V29.3399C160.913 59.3092 142.762 81.6143 118.334 129.857H102.787H87.2408C62.8131 81.6143 44.6615 59.3092 3.07422 29.3399Z" fill="#E7ACAA"/>
<path d="M3.07422 29.3399V3.94604C80.8644 27.0351 124.528 27.0771 202.501 3.94604V29.3399M3.07422 29.3399C59.364 33.0432 95.2822 69.5469 87.2408 129.857M3.07422 29.3399C44.6615 59.3092 62.8131 81.6143 87.2408 129.857M87.2408 129.857H102.787H118.334M202.501 29.3399C146.211 33.0432 110.293 69.5469 118.334 129.857M202.501 29.3399C160.913 59.3092 142.762 81.6143 118.334 129.857" stroke="black" stroke-width="4.73651"/>
</svg>
