<svg width="231" height="134" viewBox="0 0 231 134" fill="none" xmlns="http://www.w3.org/2000/svg">
<path d="M24.7907 2.74979C39.3393 13.7251 46.9771 20.0827 59.8283 31.7193C80.1906 51.8111 100.399 79.2906 109.07 99.0035H121.854C130.526 79.2906 152.633 48.0732 171.096 31.7193C189.56 15.3654 191.585 13.7251 206.134 2.74979L210.869 4.6189L213.236 5.55329C214.802 11.3833 216.221 16.8226 217.503 21.9072C231.496 77.3875 229.226 90.6363 223.179 108.348L221.759 130.777H197.611H9.16589L7.74533 108.348C1.69867 90.6363 -0.571798 77.3875 13.4216 21.9072C14.7041 16.8226 16.1232 11.3833 17.6884 5.55329L20.056 4.6189L24.7907 2.74979Z" fill="#E7ACAA"/>
<path d="M7.74533 108.348C26.1671 110.472 40.807 111.044 55.0935 109.937M7.74533 108.348C1.69867 90.6363 -0.571798 77.3875 13.4216 21.9072C14.7041 16.8226 16.1232 11.3833 17.6884 5.55329L20.056 4.6189L24.7907 2.74979C39.3393 13.7251 46.977 20.0827 59.8283 31.7193C80.1906 51.8111 100.399 79.2906 109.07 99.0035M7.74533 108.348L9.16589 130.777H197.611H221.759L223.179 108.348M109.07 99.0035C87.9341 105.069 71.7542 108.645 55.0935 109.937M109.07 99.0035H121.854M55.0935 109.937C44.2937 94.4773 40.7414 85.0447 38.9951 66.7632M121.854 99.0035C142.991 105.069 159.171 108.645 175.831 109.937M121.854 99.0035C130.526 79.2906 152.633 48.0732 171.096 31.7193C189.56 15.3654 191.585 13.7251 206.134 2.74979L210.869 4.6189L213.236 5.55329C214.802 11.3833 216.221 16.8226 217.503 21.9072C231.496 77.3875 229.226 90.6363 223.179 108.348M223.179 108.348C204.758 110.472 190.118 111.044 175.831 109.937M175.831 109.937C186.631 94.4773 190.183 85.0447 191.93 66.7632" stroke="black" stroke-width="4.73227"/>
</svg>
