<svg width="156" height="173" viewBox="0 0 156 173" fill="none" xmlns="http://www.w3.org/2000/svg">
<path d="M123.931 46.9464C130.803 21.5754 114.901 11.9337 72.8979 4.19251C62.3701 1.53484 59.6202 3.45996 56.2646 8.56967C56.2457 8.79307 56.2266 9.01502 56.2075 9.23555C51.937 7.35213 47.2145 6.37968 41.82 6.38118C22.5605 6.38655 1.9341 20.5983 8.55359 31.7687C-2.83089 41.1038 4.96307 54.8491 16.8702 78.1665C21.1927 85.7066 27.2049 89.5549 35.9992 90.8136C20.4752 95.5585 13.9185 104.641 13.4002 121.549C11.1738 143.832 15.5147 150.755 33.0657 153.454C34.9714 157.746 36.2179 159.848 41.82 157.831C47.9985 156.268 53.2749 154.701 57.9067 152.989C54.4058 157.255 57.2397 166.142 66.3321 170.087C91.3879 171 101.791 169.813 111.417 163.521C120.323 152.212 122.765 145.007 125.416 131.607C131.63 132.416 138.242 129.238 142.185 123.853C150.16 112.965 153.03 102.192 153 83.4191C150.958 67.7191 145.443 59.7149 126.737 47.0887C125.708 46.9616 124.775 46.9139 123.931 46.9464Z" fill="#FFF4F3"/>
<path d="M116.232 65.9104C118.327 74.9706 118.614 80.0489 116.232 89.1093M116.232 65.9104C108.258 64.7858 104.105 64.9429 96.9722 65.9104M116.232 65.9104C136.492 25.8666 124.052 13.6201 72.8979 4.19251C62.3701 1.53484 59.6202 3.45996 56.2646 8.56967C54.8764 24.926 53.047 33.5175 41.82 44.4624C60.9859 66.6748 72.3099 75.7547 96.9722 65.9104M116.232 65.9104C115.89 51.9403 116.883 45.8713 126.737 47.0887C145.443 59.7149 150.958 67.7191 153 83.4191C153.03 102.192 150.16 112.965 142.185 123.853C136.966 130.98 127.072 134.242 119.613 129.509C108.742 122.609 109.29 110.926 116.232 89.1093M116.232 89.1093C112.675 94.0657 109.525 96.2796 102.663 99.6145M116.232 89.1093C135.518 103.66 132.802 113.568 125.424 131.568C122.77 144.993 120.332 152.201 111.417 163.521C101.791 169.813 91.3879 171 66.3321 170.087C54.1373 164.796 53.2006 150.615 63.7058 150.615M102.663 99.6145C90.5146 96.4602 85.4407 93.7468 81.6522 86.0453M102.663 99.6145C91.2819 100.49 97.4099 115.81 89.531 129.379C81.4924 139.503 74.3907 145.759 63.7058 150.615M81.6522 86.0453C83.539 74.0395 86.268 68.9983 96.9722 65.9104M81.6522 86.0453C44.095 93.4725 26.3872 94.7676 16.8702 78.1665C4.96307 54.8491 -2.83088 41.1038 8.55359 31.7687C1.9341 20.5983 22.5605 6.38655 41.82 6.38118C67.5299 6.37402 77.9763 28.4897 96.9722 65.9104M81.6522 86.0453C32.3371 86.7709 14.2746 93.0235 13.4002 121.549M13.3685 123.251C13.3725 122.675 13.383 122.108 13.4002 121.549M13.4002 121.549C11.1738 143.832 15.5147 150.755 33.0657 153.454C34.9714 157.746 36.2179 159.848 41.82 157.831C50.7358 155.576 57.7731 153.311 63.7058 150.615" stroke="black" stroke-width="4.29126"/>
</svg>
