<svg width="156" height="173" viewBox="0 0 156 173" fill="none" xmlns="http://www.w3.org/2000/svg">
<path d="M32.0691 46.9464C25.1972 21.5754 41.0985 11.9337 83.1021 4.19251C93.6299 1.53484 96.3798 3.45996 99.7354 8.56967C99.7543 8.79307 99.7734 9.01502 99.7925 9.23555C104.063 7.35213 108.786 6.37968 114.18 6.38118C133.439 6.38655 154.066 20.5983 147.446 31.7687C158.831 41.1038 151.037 54.8491 139.13 78.1665C134.807 85.7066 128.795 89.5549 120.001 90.8136C135.525 95.5585 142.082 104.641 142.6 121.549C144.826 143.832 140.485 150.755 122.934 153.454C121.029 157.746 119.782 159.848 114.18 157.831C108.002 156.268 102.725 154.701 98.0933 152.989C101.594 157.255 98.7603 166.142 89.6679 170.087C64.6121 171 54.2085 169.813 44.5832 163.521C35.6768 152.212 33.2348 145.007 30.584 131.607C24.3702 132.416 17.7583 129.238 13.8146 123.853C5.83956 112.965 2.96959 102.192 3.00024 83.4191C5.04249 67.7191 10.5566 59.7149 29.2632 47.0887C30.2923 46.9616 31.2247 46.9139 32.0691 46.9464Z" fill="#FFF4F3"/>
<path d="M39.7683 65.9104C37.6727 74.9706 37.3862 80.0489 39.7683 89.1093M39.7683 65.9104C47.742 64.7858 51.8952 64.9429 59.0278 65.9104M39.7683 65.9104C19.5077 25.8666 31.9479 13.6201 83.1021 4.19251C93.6299 1.53484 96.3798 3.45996 99.7354 8.56967C101.124 24.926 102.953 33.5175 114.18 44.4624C95.0141 66.6748 83.6901 75.7547 59.0278 65.9104M39.7683 65.9104C40.11 51.9403 39.1167 45.8713 29.2632 47.0887C10.5566 59.7149 5.04249 67.7191 3.00024 83.4191C2.96959 102.192 5.83956 112.965 13.8146 123.853C19.0343 130.98 28.9282 134.242 36.3865 129.509C47.2582 122.609 46.7097 110.926 39.7683 89.1093M39.7683 89.1093C43.3247 94.0657 46.4754 96.2796 53.3375 99.6145M39.7683 89.1093C20.4823 103.66 23.1979 113.568 30.5763 131.568C33.23 144.993 35.6682 152.201 44.5832 163.521C54.2085 169.813 64.6121 171 89.6679 170.087C101.863 164.796 102.799 150.615 92.2942 150.615M53.3375 99.6145C65.4854 96.4602 70.5593 93.7468 74.3478 86.0453M53.3375 99.6145C64.7181 100.49 58.5901 115.81 66.469 129.379C74.5076 139.503 81.6093 145.759 92.2942 150.615M74.3478 86.0453C72.461 74.0395 69.732 68.9983 59.0278 65.9104M74.3478 86.0453C111.905 93.4725 129.613 94.7676 139.13 78.1665C151.037 54.8491 158.831 41.1038 147.446 31.7687C154.066 20.5983 133.439 6.38655 114.18 6.38118C88.4701 6.37402 78.0237 28.4897 59.0278 65.9104M74.3478 86.0453C123.663 86.7709 141.725 93.0235 142.6 121.549M142.632 123.251C142.628 122.675 142.617 122.108 142.6 121.549M142.6 121.549C144.826 143.832 140.485 150.755 122.934 153.454C121.029 157.746 119.782 159.848 114.18 157.831C105.264 155.576 98.2269 153.311 92.2942 150.615" stroke="black" stroke-width="4.29126"/>
</svg>
